<svg width="22" height="14" viewBox="0 0 22 14" fill="none" xmlns="http://www.w3.org/2000/svg">
<path d="M14.3359 1.04746H19.791V2.3709H14.3359V1.04746ZM8.86992 6.28379C10.0758 5.70684 10.7074 4.8291 10.7074 3.47285C10.7074 0.79043 8.71133 0.139648 6.40625 0.139648H0.0625V13.6037H6.58398C9.02852 13.6037 11.3227 12.4279 11.3227 9.69355C11.3227 8.00371 10.5242 6.7541 8.86992 6.28379ZM3.02109 2.43652H5.79648C6.86563 2.43652 7.82539 2.73457 7.82539 3.97598C7.82539 5.11895 7.07891 5.57832 6.0207 5.57832H3.02109V2.43652ZM6.1793 11.3178H3.01836V7.60996H6.24219C7.54375 7.60996 8.3668 8.1541 8.3668 9.53223C8.3668 10.8885 7.38516 11.3178 6.1793 11.3178ZM21.9238 8.87051C21.9238 5.98574 20.2367 3.58223 17.1852 3.58223C14.2184 3.58223 12.2004 5.81621 12.2004 8.74473C12.2004 11.7799 14.1117 13.8635 17.1852 13.8635C19.5121 13.8635 21.0188 12.8162 21.7434 10.5822H19.3836C19.1266 11.4162 18.082 11.8537 17.2699 11.8537C15.7004 11.8537 14.8801 10.935 14.8801 9.37363H21.9047C21.9129 9.21231 21.9238 9.04277 21.9238 8.87051ZM14.8801 7.68379C14.9648 6.40137 15.8207 5.6002 17.1004 5.6002C18.4457 5.6002 19.1184 6.39043 19.2359 7.68379H14.8801Z" fill="black"/>
</svg>
