<svg width="36" height="19" viewBox="0 0 36 19" fill="none" xmlns="http://www.w3.org/2000/svg">
<path fill-rule="evenodd" clip-rule="evenodd" d="M0 8.125C0 7.22989 0.355579 6.37145 0.988515 5.73851C1.62145 5.10558 2.47989 4.75 3.375 4.75H32.625C33.5201 4.75 34.3786 5.10558 35.0115 5.73851C35.6444 6.37145 36 7.22989 36 8.125V13.489L18.8685 18.0565C18.2994 18.208 17.7006 18.208 17.1315 18.0565L0 13.489V8.125ZM3.375 7C3.07663 7 2.79048 7.11853 2.5795 7.3295C2.36853 7.54048 2.25 7.82663 2.25 8.125V11.761L17.7097 15.883C17.8999 15.9338 18.1001 15.9338 18.2902 15.883L33.75 11.761V8.125C33.75 7.82663 33.6315 7.54048 33.4205 7.3295C33.2095 7.11853 32.9234 7 32.625 7H3.375ZM11.25 3.625C11.25 2.72989 11.6056 1.87145 12.2385 1.23851C12.8714 0.605579 13.7299 0.25 14.625 0.25H21.375C22.2701 0.25 23.1286 0.605579 23.7615 1.23851C24.3944 1.87145 24.75 2.72989 24.75 3.625V4.75H22.5V3.625C22.5 3.32663 22.3815 3.04048 22.1705 2.8295C21.9595 2.61853 21.6734 2.5 21.375 2.5H14.625C14.3266 2.5 14.0405 2.61853 13.8295 2.8295C13.6185 3.04048 13.5 3.32663 13.5 3.625V4.75H11.25V3.625Z" fill="white"/>
</svg>
