<svg width="37" height="48" viewBox="0 0 37 48" fill="none" xmlns="http://www.w3.org/2000/svg">
<path fill-rule="evenodd" clip-rule="evenodd" d="M18.5 0.0922852C10.349 0.0922852 3.73999 6.44928 3.73999 14.2913C3.73999 16.3163 4.18999 18.2423 4.98199 19.9853L18.752 41.9483L32.018 19.9853C32.8338 18.198 33.2554 16.256 33.254 14.2913C33.254 6.44928 26.651 0.0922852 18.5 0.0922852ZM18.5 24.3623C17.2819 24.3603 16.0761 24.1183 14.9516 23.6501C13.827 23.1818 12.8058 22.4965 11.9463 21.6334C11.0868 20.7702 10.4058 19.7461 9.9423 18.6197C9.47879 17.4932 9.24183 16.2864 9.24499 15.0683C9.24262 13.8505 9.48013 12.6442 9.94396 11.5183C10.4078 10.3923 11.0888 9.36876 11.9483 8.50601C12.8077 7.64326 13.8286 6.95823 14.9527 6.49003C16.0769 6.02184 17.2822 5.77965 18.5 5.77729C20.9594 5.78285 23.3159 6.76456 25.0519 8.5067C26.7879 10.2488 27.7612 12.6089 27.758 15.0683C27.762 17.5282 26.789 19.889 25.053 21.6318C23.3169 23.3746 20.9599 24.3567 18.5 24.3623ZM24.431 14.9483C24.4326 15.729 24.2803 16.5023 23.9829 17.2242C23.6855 17.946 23.2488 18.6022 22.6978 19.1552C22.1467 19.7082 21.4921 20.1472 20.7713 20.4472C20.0505 20.7471 19.2777 20.9021 18.497 20.9033C16.9211 20.8993 15.4112 20.2699 14.299 19.1533C13.1869 18.0367 12.5636 16.5242 12.566 14.9483C12.5648 14.1682 12.7173 13.3956 13.0147 12.6745C13.3121 11.9533 13.7487 11.2978 14.2994 10.7454C14.8502 10.193 15.5043 9.75449 16.2245 9.45488C16.9448 9.15528 17.7169 9.00047 18.497 8.99929C21.773 8.99929 24.431 11.6663 24.431 14.9483Z" fill="#6F2CFF"/>
<path fill-rule="evenodd" clip-rule="evenodd" d="M10.397 35.469C5.246 36.561 3.107 37.995 3.107 39.606C3.107 41.913 8.6 45.093 18.455 45.093C28.31 45.093 33.803 41.913 33.803 39.606C33.803 38.001 31.679 36.609 26.6 35.469V33.009C32.195 34.107 36.362 36.312 36.362 39.606C36.362 44.358 27.134 47.916 18.455 47.916C9.776 47.916 0.548004 44.358 0.548004 39.606C0.548004 36.306 4.742 34.059 10.367 33L10.397 35.469Z" fill="#6F2CFF"/>
</svg>
