<svg width="42" height="31" viewBox="0 0 42 31" fill="none" xmlns="http://www.w3.org/2000/svg">
<path d="M39 0.5H3C2.20435 0.5 1.44129 0.81607 0.87868 1.37868C0.31607 1.94129 0 2.70435 0 3.5V27.5C0 28.2956 0.31607 29.0587 0.87868 29.6213C1.44129 30.1839 2.20435 30.5 3 30.5H39C39.7957 30.5 40.5587 30.1839 41.1213 29.6213C41.6839 29.0587 42 28.2956 42 27.5V3.5C42 2.70435 41.6839 1.94129 41.1213 1.37868C40.5587 0.81607 39.7957 0.5 39 0.5ZM35.7 3.5L21 13.67L6.3 3.5H35.7ZM3 27.5V4.865L20.145 16.73C20.3961 16.9042 20.6944 16.9975 21 16.9975C21.3056 16.9975 21.6039 16.9042 21.855 16.73L39 4.865V27.5H3Z" fill="#6F2CFF"/>
</svg>
