<svg width="28" height="28" viewBox="0 0 28 28" fill="none" xmlns="http://www.w3.org/2000/svg">
<path d="M13.9891 2.08643C7.22695 2.08369 1.75 7.55791 1.75 14.3146C1.75 19.6575 5.17617 24.1993 9.94766 25.8673C10.5902 26.0286 10.4918 25.572 10.4918 25.2603V23.1411C6.78125 23.5759 6.63086 21.1204 6.38203 20.7103C5.87891 19.8517 4.68945 19.6329 5.04492 19.2228C5.88984 18.788 6.75117 19.3321 7.74922 20.806C8.47109 21.8751 9.8793 21.6946 10.593 21.5169C10.7488 20.8743 11.0824 20.3001 11.5418 19.8544C7.69727 19.1653 6.09492 16.8192 6.09492 14.0302C6.09492 12.6767 6.54063 11.4325 7.41563 10.429C6.85781 8.77471 7.46758 7.3583 7.54961 7.14775C9.13828 7.00557 10.7898 8.28525 10.9184 8.38643C11.8207 8.14307 12.8516 8.01455 14.0055 8.01455C15.1648 8.01455 16.1984 8.14854 17.109 8.39463C17.418 8.15947 18.9492 7.06026 20.4258 7.19424C20.5051 7.40479 21.1012 8.78838 20.5762 10.4208C21.4621 11.4271 21.9133 12.6821 21.9133 14.0384C21.9133 16.8329 20.3 19.1817 16.4445 19.8599C16.7748 20.1846 17.037 20.5719 17.2158 20.9992C17.3947 21.4264 17.4867 21.885 17.4863 22.3481V25.4243C17.5082 25.6704 17.4863 25.9138 17.8965 25.9138C22.7391 24.2813 26.2254 19.7067 26.2254 14.3173C26.2254 7.55791 20.7457 2.08643 13.9891 2.08643Z" fill="black"/>
</svg>
