<svg width="36" height="23" viewBox="0 0 36 23" fill="none" xmlns="http://www.w3.org/2000/svg">
<path d="M35.0066 5.61749L19.3162 0.796869C18.4612 0.534182 17.5387 0.534182 16.6843 0.796869L0.993368 5.61749C-0.330757 6.02418 -0.330757 7.77524 0.993368 8.18193L3.72881 9.02231C3.12862 9.76424 2.75962 10.6693 2.72306 11.6604C2.18137 11.9709 1.79999 12.5312 1.79999 13.2C1.79999 13.8064 2.11949 14.3166 2.57962 14.6428L1.14356 21.1048C1.01868 21.6667 1.44618 22.2 2.02162 22.2H5.17781C5.75381 22.2 6.18131 21.6667 6.05643 21.1048L4.62037 14.6428C5.08049 14.3166 5.39999 13.8064 5.39999 13.2C5.39999 12.5492 5.03606 12.0047 4.51912 11.6886C4.56187 10.8437 4.99387 10.0967 5.68293 9.62306L16.6837 13.0031C17.1934 13.1595 18.171 13.3547 19.3157 13.0031L35.0066 8.18249C36.3313 7.77524 36.3313 6.02474 35.0066 5.61749ZM19.8444 14.7238C18.2396 15.2166 16.8722 14.9443 16.155 14.7238L7.99762 12.2179L7.19999 18.6C7.19999 20.5884 12.0352 22.2 18 22.2C23.9647 22.2 28.8 20.5884 28.8 18.6L28.0024 12.2173L19.8444 14.7238Z" fill="white"/>
</svg>
