<svg width="38" height="18" viewBox="0 0 38 18" fill="none" xmlns="http://www.w3.org/2000/svg">
<path d="M7.944 11.624C7.944 12.872 7.368 13.496 6.384 13.496C5.328 13.496 4.704 12.8 4.704 11.36H0.624C0.624 15.152 3.048 17.168 6.504 17.168C9.84 17.168 12.048 15.248 12.048 11.624V0.151999H7.944V11.624Z" fill="white"/>
<path d="M21.675 0.151999H15.363V17H21.675C27.051 17 30.507 13.568 30.507 8.576C30.507 3.56 27.051 0.151999 21.675 0.151999ZM19.467 13.448V3.656H21.411C24.507 3.656 26.331 5.48 26.331 8.576C26.331 11.672 24.507 13.448 21.411 13.448H19.467ZM37.1445 14.984C37.1445 13.712 36.1605 12.728 34.7205 12.728C33.2565 12.728 32.2725 13.712 32.2725 14.984C32.2725 16.208 33.2565 17.192 34.7205 17.192C36.1605 17.192 37.1445 16.208 37.1445 14.984Z" fill="#6F2CFF"/>
</svg>
