<svg width="48" height="48" viewBox="0 0 48 48" fill="none" xmlns="http://www.w3.org/2000/svg">
<path d="M34.24 33.1517C35.392 33.7063 36.288 34.4317 36.928 35.3277C37.568 36.2237 38.016 37.1623 38.272 38.1437C38.528 39.125 38.6986 40.0423 38.784 40.8957C38.8693 41.749 38.8693 42.4103 38.784 42.8797C38.6986 43.349 38.528 43.6903 38.272 43.9037C37.6746 44.4157 36.9493 44.8637 36.096 45.2477C35.2426 45.6317 34.304 45.973 33.28 46.2717C32.256 46.5703 31.2106 46.805 30.144 46.9757L27.008 47.4877C24.6187 47.7864 22.1013 47.957 19.456 47.9997C16.768 47.957 14.2293 47.7864 11.84 47.4877C10.816 47.3597 9.77065 47.189 8.70399 46.9757C7.63732 46.7623 6.61332 46.5277 5.63199 46.2717C4.65066 46.0157 3.71199 45.6743 2.81599 45.2477C1.91999 44.821 1.17332 44.373 0.575991 43.9037C0.319991 43.6903 0.159991 43.3597 0.0959911 42.9117C0.0319911 42.4637 0.0213245 41.7917 0.0639911 40.8957C0.106658 39.9997 0.277324 39.0823 0.575991 38.1437C0.874658 37.205 1.32266 36.2663 1.91999 35.3277C2.51732 34.389 3.41332 33.6637 4.60799 33.1517L8.57599 31.3597C9.81332 30.805 10.9227 30.2077 11.904 29.5677C12.8853 28.9277 13.632 28.181 14.144 27.3277C14.656 26.4743 14.9333 25.4503 14.976 24.2557V23.8717C14.2507 23.2743 13.7173 22.5703 13.376 21.7597L11.904 18.3037C11.136 17.4503 10.56 16.661 10.176 15.9357C9.83465 15.3383 9.66399 14.7837 9.66399 14.2717C9.66399 13.7597 10.0267 13.5037 10.752 13.5037C10.496 11.8823 10.432 10.4317 10.56 9.15168C10.6453 8.08501 10.9013 7.10368 11.328 6.20768C11.7547 5.31168 12.5227 4.86368 13.632 4.86368C13.8453 4.05301 14.208 3.32768 14.72 2.68768C15.1893 2.13301 15.8507 1.62101 16.704 1.15168C17.5573 0.682348 18.688 0.469014 20.096 0.511681C21.376 0.511681 22.4213 0.789014 23.232 1.34368C24.0427 1.89835 24.7467 2.53835 25.344 3.26368C25.9413 3.98901 26.432 4.69301 26.816 5.37568C27.2 6.05835 27.6266 6.54901 28.096 6.84768C28.2666 6.93301 28.416 7.03968 28.544 7.16768C28.672 7.29568 28.672 7.46635 28.544 7.67968C28.3733 8.27701 28.2026 9.15168 28.032 10.3037C27.8613 11.4557 27.8826 12.5223 28.096 13.5037C28.864 13.5463 29.2266 13.8023 29.184 14.2717C29.1413 14.741 28.928 15.2957 28.544 15.9357C28.1173 16.661 27.52 17.4503 26.752 18.3037C26.4533 19.0717 26.2186 19.733 26.048 20.2877C25.8773 20.8424 25.6853 21.3543 25.472 21.8237C25.2586 22.293 25.0453 22.6557 24.832 22.9117C24.6187 23.1677 24.2987 23.4877 23.872 23.8717V24.2557C23.872 25.493 24.1493 26.517 24.704 27.3277C25.2586 28.1383 26.0266 28.885 27.008 29.5677C27.9893 30.2503 29.0773 30.8477 30.272 31.3597C31.4666 31.8717 32.7893 32.469 34.24 33.1517ZM46.656 29.6957C47.2106 29.9944 47.488 30.4424 47.488 31.0397V41.4717C47.488 41.813 47.3813 42.1117 47.168 42.3677C46.9546 42.6237 46.656 42.7943 46.272 42.8797C45.4186 43.0504 44.608 43.157 43.84 43.1997C43.072 43.2423 42.3466 43.3063 41.664 43.3917C41.664 43.349 41.6853 43.3063 41.728 43.2637C41.7706 43.221 41.7706 43.1783 41.728 43.1357C41.7706 42.581 41.7706 41.749 41.728 40.6397C41.6853 39.5303 41.4506 38.3357 41.024 37.0557C40.5973 35.7757 39.9786 34.5383 39.168 33.3437C38.3573 32.149 37.1413 31.189 35.52 30.4637L32.576 29.1197C32.4053 29.0343 32.192 28.949 31.936 28.8637C32.832 28.309 33.5573 27.669 34.112 26.9437C34.6666 26.2183 34.9226 25.3223 34.88 24.2557V23.9357C34.2826 23.4663 33.856 22.9117 33.6 22.2717L32.448 19.4557C31.8506 18.7303 31.3813 18.0903 31.04 17.5357C30.7413 17.0663 30.592 16.6183 30.592 16.1917C30.592 15.765 30.8906 15.5303 31.488 15.4877C31.3173 14.165 31.2746 12.9917 31.36 11.9677C31.4453 11.1143 31.6586 10.325 32 9.59968C32.3413 8.87435 32.9386 8.51168 33.792 8.51168C33.92 7.87168 34.2187 7.29568 34.688 6.78368C35.072 6.31435 35.6266 5.88768 36.352 5.50368C37.0773 5.11968 37.9946 4.94901 39.104 4.99168C40.128 4.99168 40.9813 5.20501 41.664 5.63168C42.3466 6.05835 42.9013 6.57035 43.328 7.16768L44.544 8.89568C44.928 9.45035 45.2693 9.83435 45.568 10.0477C45.8666 10.261 45.9946 10.517 45.952 10.8157C45.7813 11.285 45.632 11.9677 45.504 12.8637C45.376 13.7597 45.3973 14.6343 45.568 15.4877C46.1653 15.5303 46.464 15.765 46.464 16.1917C46.464 16.6183 46.2933 17.0877 45.952 17.5997C45.6106 18.1117 45.12 18.7303 44.48 19.4557L43.392 22.2717C43.136 22.9117 42.7093 23.4663 42.112 23.9357V24.2557C42.112 25.6637 42.5386 26.7517 43.392 27.5197C44.2453 28.2877 45.3333 29.013 46.656 29.6957Z" fill="white"/>
</svg>
