<svg width="40" height="40" viewBox="0 0 40 40" fill="none" xmlns="http://www.w3.org/2000/svg">
<path d="M9.2195 0.700195L8.1875 1.7787L1.5785 8.3877L0.5 9.41969L11.282 20.2002L3.782 27.7002L3.6875 28.1697L2.0465 36.4197L1.5785 38.6217L3.782 38.1537L12.032 36.5127L12.5 36.4182L20 28.9182L30.734 39.6537L31.766 38.5752L38.375 31.9662L39.4535 30.9342L28.718 20.2002L36.125 12.7932C36.6988 12.2215 37.1541 11.5422 37.4648 10.7942C37.7754 10.0462 37.9354 9.24417 37.9354 8.4342C37.9354 7.62423 37.7754 6.82222 37.4648 6.0742C37.1541 5.32618 36.6988 4.64685 36.125 4.0752C35.5544 3.49864 34.8757 3.04034 34.1277 2.72657C33.3797 2.4128 32.5771 2.24973 31.766 2.2467C30.9546 2.24953 30.1518 2.41251 29.4035 2.72628C28.6552 3.04006 27.9762 3.49846 27.4055 4.0752L20 11.4822L9.2195 0.700195ZM9.2195 4.9662L12.125 7.91819L9.9215 10.1232L12.0785 12.2787L14.282 10.0752L17.843 13.6377L13.391 18.0912L4.7195 9.41969L9.2195 4.9662ZM31.7645 5.1537C32.5445 5.1537 33.3365 5.5047 34.0145 6.1842C35.369 7.5387 35.369 9.2847 34.0145 10.6377L33.032 11.6217L28.577 7.16819L29.5625 6.1842C30.242 5.5047 30.9875 5.1537 31.766 5.1537H31.7645ZM26.4695 9.2787L30.9215 13.7322L12.782 31.8702C11.7891 29.9641 10.2337 28.4098 8.327 27.4182L26.4695 9.2787ZM26.609 22.3092L30.1715 25.8717L27.9215 28.1217L30.0785 30.2787L32.3285 28.0287L35.1875 30.8877L30.6875 35.3877L22.109 26.8092L26.609 22.3092ZM6.407 29.8092C8.20548 30.565 9.63587 31.9959 10.391 33.7947L5.4215 34.7787L6.407 29.8092Z" fill="white"/>
</svg>
