<svg width="48" height="49" viewBox="0 0 48 49" fill="none" xmlns="http://www.w3.org/2000/svg">
<path d="M17.9531 35.4502H27.0469C29.8182 35.447 32.4752 34.3447 34.4349 32.3851C36.3945 30.4254 37.4968 27.7684 37.5 24.9971V23.4502H39.75C41.5402 23.4502 43.2571 22.739 44.523 21.4732C45.7888 20.2073 46.5 18.4904 46.5 16.7002C46.5 14.91 45.7888 13.1931 44.523 11.9272C43.2571 10.6614 41.5402 9.9502 39.75 9.9502H7.5V24.9971C7.50315 27.7684 8.60547 30.4254 10.5651 32.3851C12.5248 34.3447 15.1818 35.447 17.9531 35.4502ZM37.5 12.9502H39.75C40.7446 12.9502 41.6984 13.3453 42.4016 14.0485C43.1049 14.7518 43.5 15.7056 43.5 16.7002C43.5 17.6948 43.1049 18.6486 42.4016 19.3518C41.6984 20.0551 40.7446 20.4502 39.75 20.4502H37.5V12.9502ZM10.5 12.9502H34.5V24.9971C34.4978 26.9731 33.7118 28.8675 32.3146 30.2648C30.9173 31.662 29.0229 32.448 27.0469 32.4502H17.9531C15.9771 32.448 14.0827 31.662 12.6854 30.2648C11.2882 28.8675 10.5022 26.9731 10.5 24.9971V12.9502Z" fill="white"/>
<path d="M1.5 39.2002H46.5V42.2002H1.5V39.2002Z" fill="white"/>
</svg>
