<svg width="28" height="41" viewBox="0 0 28 41" fill="none" xmlns="http://www.w3.org/2000/svg">
<path d="M0 14.1982C0 18.0022 1.53 21.4522 4 23.9782V38.2002C3.99873 38.5416 4.08503 38.8776 4.25066 39.176C4.41629 39.4745 4.65571 39.7256 4.94603 39.9051C5.23635 40.0847 5.56788 40.1868 5.90892 40.2017C6.24997 40.2166 6.58913 40.1438 6.894 39.9902L14 36.4362L21.106 39.9882C21.4101 40.142 21.7488 40.215 22.0893 40.1999C22.4298 40.1848 22.7606 40.0823 23.05 39.9022C23.64 39.5362 24 38.8942 24 38.2002V23.9802C26.5645 21.3702 28.001 17.8572 28 14.1982C28 6.48019 21.72 0.200195 14 0.200195C6.28 0.200195 0 6.48019 0 14.1982ZM14.894 32.4102C14.6161 32.2712 14.3097 32.1988 13.999 32.1988C13.6883 32.1988 13.3819 32.2712 13.104 32.4102L8 34.9642V26.8302C9.822 27.6982 11.852 28.2002 14 28.2002C16.148 28.2002 18.178 27.7002 20 26.8302V34.9622L14.894 32.4102ZM14 4.2002C19.512 4.2002 24 8.68419 24 14.1982C23.9974 16.8497 22.943 19.3919 21.0683 21.267C19.1935 23.1422 16.6515 24.197 14 24.2002C8.486 24.2002 4 19.7142 4 14.1982C4.00318 11.5472 5.05783 9.0057 6.93256 7.13134C8.80729 5.25699 11.349 4.20284 14 4.2002Z" fill="white"/>
</svg>
