<svg width="60" height="54" viewBox="0 0 60 54" fill="none" xmlns="http://www.w3.org/2000/svg">
<path fill-rule="evenodd" clip-rule="evenodd" d="M52.5 4.5H7.5C6.50544 4.5 5.55161 4.89509 4.84835 5.59835C4.14509 6.30161 3.75 7.25544 3.75 8.25V45.75C3.75 46.7446 4.14509 47.6984 4.84835 48.4016C5.55161 49.1049 6.50544 49.5 7.5 49.5H52.5C53.4946 49.5 54.4484 49.1049 55.1516 48.4016C55.8549 47.6984 56.25 46.7446 56.25 45.75V8.25C56.25 7.25544 55.8549 6.30161 55.1516 5.59835C54.4484 4.89509 53.4946 4.5 52.5 4.5ZM7.5 0.75C5.51088 0.75 3.60322 1.54018 2.1967 2.9467C0.790176 4.35322 0 6.26088 0 8.25L0 45.75C0 47.7391 0.790176 49.6468 2.1967 51.0533C3.60322 52.4598 5.51088 53.25 7.5 53.25H52.5C54.4891 53.25 56.3968 52.4598 57.8033 51.0533C59.2098 49.6468 60 47.7391 60 45.75V8.25C60 6.26088 59.2098 4.35322 57.8033 2.9467C56.3968 1.54018 54.4891 0.75 52.5 0.75H7.5Z" fill="#6F2CFF"/>
<path fill-rule="evenodd" clip-rule="evenodd" d="M56.25 19.5H3.75V15.75H56.25V19.5Z" fill="#6F2CFF"/>
<path d="M11.25 10.125C11.25 10.6223 11.0525 11.0992 10.7008 11.4508C10.3492 11.8025 9.87228 12 9.375 12C8.87772 12 8.40081 11.8025 8.04918 11.4508C7.69754 11.0992 7.5 10.6223 7.5 10.125C7.5 9.62772 7.69754 9.15081 8.04918 8.79918C8.40081 8.44754 8.87772 8.25 9.375 8.25C9.87228 8.25 10.3492 8.44754 10.7008 8.79918C11.0525 9.15081 11.25 9.62772 11.25 10.125ZM16.875 10.125C16.875 10.6223 16.6775 11.0992 16.3258 11.4508C15.9742 11.8025 15.4973 12 15 12C14.5027 12 14.0258 11.8025 13.6742 11.4508C13.3225 11.0992 13.125 10.6223 13.125 10.125C13.125 9.62772 13.3225 9.15081 13.6742 8.79918C14.0258 8.44754 14.5027 8.25 15 8.25C15.4973 8.25 15.9742 8.44754 16.3258 8.79918C16.6775 9.15081 16.875 9.62772 16.875 10.125ZM22.5 10.125C22.5 10.6223 22.3025 11.0992 21.9508 11.4508C21.5992 11.8025 21.1223 12 20.625 12C20.1277 12 19.6508 11.8025 19.2992 11.4508C18.9475 11.0992 18.75 10.6223 18.75 10.125C18.75 9.62772 18.9475 9.15081 19.2992 8.79918C19.6508 8.44754 20.1277 8.25 20.625 8.25C21.1223 8.25 21.5992 8.44754 21.9508 8.79918C22.3025 9.15081 22.5 9.62772 22.5 10.125Z" fill="#6F2CFF"/>
</svg>
