<svg width="54" height="60" viewBox="0 0 54 60" fill="none" xmlns="http://www.w3.org/2000/svg">
<path fill-rule="evenodd" clip-rule="evenodd" d="M13.875 33.75C10.394 33.75 7.05564 35.1328 4.59422 37.5942C2.13281 40.0556 0.75 43.394 0.75 46.875C0.75 50.356 2.13281 53.6944 4.59422 56.1558C7.05564 58.6172 10.394 60 13.875 60H40.125C43.606 60 46.9444 58.6172 49.4058 56.1558C51.8672 53.6944 53.25 50.356 53.25 46.875C53.25 43.394 51.8672 40.0556 49.4058 37.5942C46.9444 35.1328 43.606 33.75 40.125 33.75H13.875ZM40.125 56.25C42.6114 56.25 44.996 55.2623 46.7541 53.5041C48.5123 51.746 49.5 49.3614 49.5 46.875C49.5 44.3886 48.5123 42.004 46.7541 40.2459C44.996 38.4877 42.6114 37.5 40.125 37.5C37.6386 37.5 35.254 38.4877 33.4959 40.2459C31.7377 42.004 30.75 44.3886 30.75 46.875C30.75 49.3614 31.7377 51.746 33.4959 53.5041C35.254 55.2623 37.6386 56.25 40.125 56.25ZM13.875 3.75C11.3886 3.75 9.00403 4.73772 7.24587 6.49587C5.48772 8.25403 4.5 10.6386 4.5 13.125C4.5 15.6114 5.48772 17.996 7.24587 19.7541C9.00403 21.5123 11.3886 22.5 13.875 22.5C16.3614 22.5 18.746 21.5123 20.5041 19.7541C22.2623 17.996 23.25 15.6114 23.25 13.125C23.25 10.6386 22.2623 8.25403 20.5041 6.49587C18.746 4.73772 16.3614 3.75 13.875 3.75ZM23.0625 3.75C24.3111 4.97092 25.3027 6.42939 25.979 8.03946C26.6552 9.64954 27.0024 11.3787 27 13.125C27.0024 14.8713 26.6552 16.6005 25.979 18.2105C25.3027 19.8206 24.3111 21.2791 23.0625 22.5H40.125C42.6114 22.5 44.996 21.5123 46.7541 19.7541C48.5123 17.996 49.5 15.6114 49.5 13.125C49.5 10.6386 48.5123 8.25403 46.7541 6.49587C44.996 4.73772 42.6114 3.75 40.125 3.75H23.0625ZM13.875 0H40.125C43.606 0 46.9444 1.38281 49.4058 3.84422C51.8672 6.30564 53.25 9.64403 53.25 13.125C53.25 16.606 51.8672 19.9444 49.4058 22.4058C46.9444 24.8672 43.606 26.25 40.125 26.25H13.875C10.394 26.25 7.05564 24.8672 4.59422 22.4058C2.13281 19.9444 0.75 16.606 0.75 13.125C0.75 9.64403 2.13281 6.30564 4.59422 3.84422C7.05564 1.38281 10.394 0 13.875 0V0Z" fill="#6F2CFF"/>
</svg>
