<svg width="60" height="48" viewBox="0 0 60 48" fill="none" xmlns="http://www.w3.org/2000/svg">
<path d="M50.9314 21.0348C50.7509 20.9745 50.555 20.992 50.3867 21.0834C50.2185 21.1748 50.0917 21.3327 50.0343 21.5223C49.9769 21.7118 49.9936 21.9176 50.0806 22.0942C50.1677 22.2709 50.318 22.404 50.4986 22.4642C56.0814 24.3317 58.5714 27.1171 58.5714 31.5C58.5714 35.3984 55.1843 38.4238 53.1671 39.8818C53.0716 39.9506 52.9935 40.0429 52.9394 40.1505C52.8854 40.2582 52.8572 40.3781 52.8571 40.4997V46.2341C51.1419 45.551 49.6096 44.4419 48.3914 43.0017C48.3088 42.9051 48.2039 42.8324 48.0868 42.7907C47.9698 42.7489 47.8444 42.7394 47.7229 42.7632C47.3157 42.8457 46.9 42.9627 46.4786 43.0812C45.75 43.2867 44.9986 43.4997 44.2857 43.4997C40.6171 43.4997 38.0486 42.6717 35.4229 40.6452C35.2702 40.5273 35.0791 40.4779 34.8917 40.5078C34.7043 40.5378 34.5359 40.6447 34.4236 40.805C34.3112 40.9653 34.2642 41.1659 34.2927 41.3627C34.3212 41.5594 34.423 41.7363 34.5757 41.8542C37.4714 44.0891 40.2843 44.9996 44.2857 44.9996C45.1871 44.9996 46.0329 44.7611 46.85 44.5301C47.1043 44.4566 47.3571 44.3846 47.6071 44.3231C50.2771 47.2841 53.2971 47.9575 53.4286 47.9845C53.5323 48.0072 53.6396 48.0051 53.7425 47.9783C53.8453 47.9516 53.9412 47.9009 54.0229 47.83C54.1051 47.7599 54.1713 47.6714 54.2168 47.571C54.2623 47.4706 54.2858 47.3608 54.2857 47.2496V40.8912C57.9743 38.1298 60 34.8059 60 31.5C60 26.4286 57.1186 23.1032 50.9314 21.0348Z" fill="#6F2CFF"/>
<path d="M47.1428 20.2498C47.1428 8.70592 37.1171 0 23.8243 0C10.4643 0 0 8.89642 0 20.2528C0 27.0612 4.58714 31.9392 8.57142 34.8912V44.8451C8.57216 44.97 8.6025 45.0928 8.6597 45.2024C8.71689 45.3119 8.79916 45.4048 8.89907 45.4727C8.99898 45.5405 9.11341 45.5812 9.23203 45.591C9.35065 45.6009 9.46974 45.5796 9.57856 45.5291C9.78714 45.4316 14.6628 43.1051 18.8343 38.3156C20.6414 38.6681 22.6857 39.0071 24.54 39.0071C38.0585 39.0071 47.1428 31.4682 47.1428 20.2498ZM24.5386 37.5071C22.6671 37.5071 20.54 37.1306 18.7057 36.7632C18.5841 36.7397 18.4589 36.7493 18.3419 36.7911C18.2248 36.8328 18.1199 36.9053 18.0371 37.0016C15.1086 40.4696 11.6671 42.6731 9.99999 43.6226V34.4997C9.99995 34.378 9.9717 34.2581 9.91769 34.1505C9.86368 34.0428 9.78554 33.9506 9.68999 33.8817C5.92142 31.1592 1.42857 26.5872 1.42857 20.2528C1.42857 9.73641 11.2657 1.49999 23.8243 1.49999C36.3043 1.49999 45.7143 9.56091 45.7143 20.2498C45.7143 30.5727 37.2043 37.5071 24.5386 37.5071Z" fill="#6F2CFF"/>
<path d="M23.5714 17.25C21.9957 17.25 20.7143 18.5955 20.7143 20.25C20.7143 21.9045 21.9957 23.25 23.5714 23.25C25.1472 23.25 26.4286 21.9045 26.4286 20.25C26.4286 18.5955 25.1472 17.25 23.5714 17.25ZM23.5714 21.75C23.2036 21.7327 22.8563 21.5671 22.6018 21.2877C22.3474 21.0083 22.2053 20.6366 22.2053 20.25C22.2053 19.8634 22.3474 19.4917 22.6018 19.2123C22.8563 18.9329 23.2036 18.7673 23.5714 18.75C23.9393 18.7673 24.2866 18.9329 24.541 19.2123C24.7955 19.4917 24.9375 19.8634 24.9375 20.25C24.9375 20.6366 24.7955 21.0083 24.541 21.2877C24.2866 21.5671 23.9393 21.7327 23.5714 21.75Z" fill="#6F2CFF"/>
<path d="M33.5714 17.25C31.9957 17.25 30.7142 18.5955 30.7142 20.25C30.7142 21.9045 31.9957 23.25 33.5714 23.25C35.1471 23.25 36.4286 21.9045 36.4286 20.25C36.4286 18.5955 35.1471 17.25 33.5714 17.25ZM33.5714 21.75C33.2036 21.7327 32.8563 21.5671 32.6018 21.2877C32.3473 21.0083 32.2053 20.6366 32.2053 20.25C32.2053 19.8634 32.3473 19.4917 32.6018 19.2123C32.8563 18.9329 33.2036 18.7673 33.5714 18.75C33.9392 18.7673 34.2866 18.9329 34.541 19.2123C34.7955 19.4917 34.9375 19.8634 34.9375 20.25C34.9375 20.6366 34.7955 21.0083 34.541 21.2877C34.2866 21.5671 33.9392 21.7327 33.5714 21.75Z" fill="#6F2CFF"/>
<path d="M13.5714 17.3921C11.9957 17.3921 10.7143 18.7375 10.7143 20.3918C10.7143 22.0461 11.9957 23.3915 13.5714 23.3915C15.1472 23.3915 16.4286 22.0461 16.4286 20.3918C16.4286 18.7375 15.1472 17.3921 13.5714 17.3921ZM13.5714 21.8916C13.2036 21.8744 12.8563 21.7088 12.6018 21.4294C12.3474 21.15 12.2053 20.7783 12.2053 20.3918C12.2053 20.0052 12.3474 19.6335 12.6018 19.3542C12.8563 19.0748 13.2036 18.9092 13.5714 18.8919C13.9393 18.9092 14.2866 19.0748 14.541 19.3542C14.7955 19.6335 14.9375 20.0052 14.9375 20.3918C14.9375 20.7783 14.7955 21.15 14.541 21.4294C14.2866 21.7088 13.9393 21.8744 13.5714 21.8916Z" fill="#6F2CFF"/>
</svg>
