<svg width="54" height="54" viewBox="0 0 54 54" fill="none" xmlns="http://www.w3.org/2000/svg">
<path d="M27 0.75C21.8083 0.75 16.7331 2.28954 12.4163 5.17392C8.0995 8.05831 4.73497 12.158 2.74817 16.9546C0.761374 21.7511 0.241536 27.0291 1.2544 32.1211C2.26726 37.2131 4.76733 41.8904 8.43846 45.5616C12.1096 49.2327 16.7869 51.7327 21.8789 52.7456C26.9709 53.7585 32.2489 53.2386 37.0455 51.2518C41.842 49.265 45.9417 45.9005 48.8261 41.5837C51.7105 37.2669 53.25 32.1918 53.25 27C53.2421 20.0405 50.4739 13.3683 45.5528 8.44722C40.6317 3.52611 33.9595 0.75794 27 0.75ZM36.375 6.57375C38.3607 7.48899 40.2025 8.68845 41.8425 10.1344L41.0681 12H36.375V6.57375ZM22.0838 48.9431C18.0263 48.0416 14.2987 46.0316 11.316 43.137C8.33324 40.2424 6.21244 36.5767 5.18969 32.5481C4.16695 28.5195 4.2824 24.2861 5.5232 20.3193C6.764 16.3524 9.08144 12.8078 12.2175 10.08L14.7469 13.875H21.0131L18.2006 21.375H10.65L8.05876 29.1525L12.8719 36.375H22.2469L24.9319 40.4006L22.0838 48.9431ZM27 49.5C26.6194 49.5 26.2463 49.4625 25.8694 49.4437L28.4888 41.5875C28.6709 41.0463 28.7262 40.4704 28.6504 39.9044C28.5747 39.3385 28.3699 38.7974 28.0519 38.3231L25.3669 34.2956C25.025 33.7814 24.5612 33.3597 24.0168 33.0682C23.4725 32.7767 22.8644 32.6245 22.2469 32.625H14.8781L12.1931 28.5975L13.3519 25.125H17.625V28.875H21.375V23.5894L26.88 8.90812L23.37 7.59188L22.4194 10.125H16.7531L15.24 7.85625C17.8049 6.25449 20.671 5.19578 23.6612 4.74557C26.6514 4.29536 29.7022 4.46321 32.625 5.23875V12C32.626 12.9943 33.0214 13.9475 33.7245 14.6506C34.4275 15.3536 35.3808 15.749 36.375 15.75H41.2238C41.7164 15.7513 42.2044 15.6549 42.6595 15.4663C43.1146 15.2777 43.5277 15.0007 43.875 14.6512L44.1375 14.3888L44.6663 13.1137C46.18 15.0365 47.3694 17.1937 48.1875 19.5H39.3731C38.4867 19.4973 37.6281 19.8097 36.9508 20.3816C36.2735 20.9535 35.8215 21.7475 35.6756 22.6219L34.5563 29.0738C34.4207 29.838 34.5269 30.6254 34.8599 31.3265C35.193 32.0275 35.7363 32.6073 36.4144 32.985L40.4738 35.73L43.2075 42.5662C41.1146 44.7571 38.5994 46.5011 35.8138 47.6928C33.0281 48.8845 30.0299 49.4993 27 49.5ZM43.5281 33.27L38.4375 29.8294L38.25 29.7169L39.3731 23.25H49.1606C50.1429 28.7821 48.973 34.4805 45.8906 39.1781L43.5281 33.27Z" fill="#6F2CFF"/>
</svg>
