<svg width="60" height="60" viewBox="0 0 60 60" fill="none" xmlns="http://www.w3.org/2000/svg">
<path d="M18.7475 27.5C20.8186 27.5 22.4975 25.8211 22.4975 23.75C22.4975 21.6789 20.8186 20 18.7475 20C16.6764 20 14.9975 21.6789 14.9975 23.75C14.9975 25.8211 16.6764 27.5 18.7475 27.5Z" fill="#6F2CFF"/>
<path d="M26.2475 35L22.4975 30L14.9975 40H44.9975L33.7475 25L26.2475 35Z" fill="#6F2CFF"/>
<path d="M49.9975 10H9.99749C7.23999 10 4.99749 12.2425 4.99749 15V45C4.99749 47.7575 7.23999 50 9.99749 50H49.9975C52.755 50 54.9975 47.7575 54.9975 45V15C54.9975 12.2425 52.755 10 49.9975 10ZM9.99749 45V15H49.9975L50.0025 45H9.99749Z" fill="#6F2CFF"/>
</svg>
