<svg width="54" height="54" viewBox="0 0 54 54" fill="none" xmlns="http://www.w3.org/2000/svg">
<path d="M51.0563 40.4439L40.125 29.4939V21.3751C40.1264 21.1284 40.0791 20.8838 39.9858 20.6553C39.8925 20.4269 39.755 20.2191 39.5812 20.0439L20.8312 1.29388C20.6569 1.11814 20.4496 0.97865 20.2211 0.883458C19.9926 0.788267 19.7475 0.739258 19.5 0.739258C19.2525 0.739258 19.0074 0.788267 18.7789 0.883458C18.5504 0.97865 18.3431 1.11814 18.1688 1.29388L1.29375 18.1689C1.11801 18.3432 0.97852 18.5506 0.883329 18.779C0.788137 19.0075 0.739128 19.2526 0.739128 19.5001C0.739128 19.7477 0.788137 19.9927 0.883329 20.2212C0.97852 20.4497 1.11801 20.6571 1.29375 20.8314L20.0438 39.5814C20.219 39.7552 20.4267 39.8926 20.6552 39.986C20.8836 40.0793 21.1282 40.1266 21.375 40.1251H29.5125L40.4437 51.0751C41.8511 52.4824 43.7598 53.273 45.75 53.273C47.7402 53.273 49.6489 52.4824 51.0563 51.0751C52.4636 49.6678 53.2542 47.7591 53.2542 45.7689C53.2542 43.7787 52.4636 41.8699 51.0563 40.4626V40.4439ZM8.25 16.5189L12.5437 20.8314L15.2063 18.1689L10.8937 13.8751L13.875 10.8939L21.9188 18.9564L24.5812 16.2939L16.5187 8.25013L19.5 5.26888L31.8563 17.6251L17.625 31.8564L5.26875 19.5001L8.25 16.5189ZM48.3937 48.3939C47.6911 49.0923 46.7407 49.4844 45.75 49.4844C44.7593 49.4844 43.8089 49.0923 43.1063 48.3939L31.6125 36.9189C31.213 36.6441 30.7589 36.4586 30.2812 36.3751H22.1437L20.2687 34.5001L34.5 20.2689L36.375 22.1439V30.2814C36.3771 30.7733 36.5724 31.2446 36.9188 31.5939L48.3937 43.1064C49.0922 43.809 49.4842 44.7594 49.4842 45.7501C49.4842 46.7408 49.0922 47.6913 48.3937 48.3939Z" fill="#6F2CFF"/>
</svg>
