<svg width="24" height="20" viewBox="0 0 24 20" fill="none" xmlns="http://www.w3.org/2000/svg">
<path d="M23.375 2.95353C22.5383 3.31446 21.6277 3.57423 20.6898 3.6754C21.6636 3.09691 22.3928 2.18298 22.7406 1.10509C21.8269 1.64865 20.8259 2.02981 19.782 2.23165C19.3457 1.76524 18.8181 1.39367 18.2319 1.14011C17.6457 0.886545 17.0136 0.756413 16.375 0.757824C13.791 0.757824 11.7129 2.85236 11.7129 5.42267C11.7129 5.78361 11.7566 6.14454 11.8277 6.49181C7.95858 6.28946 4.5078 4.44103 2.21366 1.61095C1.79564 2.32494 1.57659 3.13789 1.57928 3.96525C1.57928 5.584 2.40233 7.01134 3.65741 7.85079C2.91777 7.82166 2.19546 7.61837 1.54921 7.25743V7.31485C1.54921 9.58165 3.15155 11.4602 5.2871 11.8922C4.88613 11.9964 4.47364 12.0496 4.05936 12.0508C3.75585 12.0508 3.46874 12.0207 3.17889 11.9797C3.76952 13.8281 5.48944 15.1707 7.53749 15.2145C5.93514 16.4695 3.92811 17.2078 1.74882 17.2078C1.3578 17.2078 0.996863 17.1942 0.622253 17.1504C2.68944 18.4766 5.14218 19.2422 7.78358 19.2422C16.3586 19.2422 21.0508 12.1383 21.0508 5.97228C21.0508 5.76993 21.0508 5.56759 21.0371 5.36525C21.9449 4.70079 22.7406 3.87775 23.375 2.95353Z" fill="black"/>
</svg>
